<svg class="homepage__logo" xmlns="http://www.w3.org/2000/svg" width="580" height="163.402" viewBox="0 0 580 163.402"><title>Vanksen connecting performance &amp; creativity</title><path d="M138.05 54.01h-.314a31.65 31.65 0 0 0-25.078-12.46c-21.962 0-35.2 17.912-35.2 38.784 0 20.25 13.55 38.474 35.047 38.474a30.777 30.777 0 0 0 25.233-12.15h.313v10.125h12.46v-73.21h-12.46zm-23.834 53.27c-15.577 0-23.988-13.55-23.988-27.88 0-13.708 9.346-26.325 23.833-26.325 15.42 0 24.61 11.837 24.61 26.48 0 14.798-8.41 27.726-24.45 27.726zM35.97 92.95L14.174 43.743H0l35.97 78.01 35.816-78.01h-14.01L35.97 92.95"></path><path d="M342.878 109.4c-.573 1.33 2.907 2.3 6.165 2.3a12.825 12.825 0 0 0 4.77-.9 24.2 24.2 0 0 0-4.694-1.7c-1.68-.446-5.52-1.375-6.25.3zm75.432-54.532a3.212 3.212 0 0 0-1.507-.78c-5.73-.86-17.43 26.476-13.884 42.933 8.52-9.29 20.22-35.98 15.39-42.15z" fill="none"></path><path d="M225.324 149.143a3.164 3.164 0 0 1 2.713 1.39l.08.11 1.322-1.22-.07-.087a4.847 4.847 0 0 0-4.14-1.965 5.92 5.92 0 0 0 0 11.83 4.84 4.84 0 0 0 4.14-1.97l.06-.08-1.33-1.21-.08.11a3.206 3.206 0 0 1-2.72 1.39c-2.21 0-3.7-1.66-3.7-4.15 0-2.47 1.49-4.13 3.7-4.13zm11.176-1.77a5.923 5.923 0 1 0 5.58 5.9 5.56 5.56 0 0 0-5.58-5.9zm3.535 5.9c0 2-1.106 4.153-3.535 4.153-2.446 0-3.56-2.152-3.56-4.154s1.114-4.13 3.56-4.13c2.425 0 3.53 2.143 3.53 4.132zm10.35-5.9a5.59 5.59 0 0 0-3.81 1.687v-1.414h-1.954v11.278h1.96v-8.147a4.155 4.155 0 0 1 3.15-1.634c1.63 0 2.35.752 2.35 2.44v7.34h1.96v-7.865c0-2.446-1.22-3.686-3.64-3.686zm12.585 0a5.588 5.588 0 0 0-3.807 1.687v-1.414h-1.955v11.278h1.955v-8.147a4.155 4.155 0 0 1 3.146-1.634c1.62 0 2.34.752 2.34 2.44v7.34h1.95v-7.865c0-2.446-1.23-3.686-3.64-3.686zm11.744 0a5.92 5.92 0 0 0 .186 11.827 6.156 6.156 0 0 0 4.47-1.728l.073-.07-.966-1.317-.1.1a4.722 4.722 0 0 1-3.32 1.357 3.774 3.774 0 0 1-3.845-3.576h8.924v-.555c0-3.61-2.18-6.03-5.422-6.03zm-3.5 5.1a3.542 3.542 0 0 1 3.482-3.44 3.462 3.462 0 0 1 3.51 3.44zm16.52-3.33a3.164 3.164 0 0 1 2.713 1.39l.08.11 1.322-1.22-.07-.087a4.846 4.846 0 0 0-4.14-1.965 5.92 5.92 0 0 0 0 11.83 4.836 4.836 0 0 0 4.14-1.97l.06-.08-1.33-1.21-.08.11a3.206 3.206 0 0 1-2.72 1.39c-2.21 0-3.7-1.66-3.7-4.15 0-2.47 1.49-4.13 3.7-4.13zm10.603 7.867a1.548 1.548 0 0 1-1.076.418c-.9 0-1-.906-1-1.3v-6.737h2.24v-1.74h-2.24v-3.01h-1.95v3.02h-1.83v1.75h1.83v7.1a2.377 2.377 0 0 0 2.57 2.7 2.952 2.952 0 0 0 2.14-.74l.06-.05-.6-1.53zm3.31-13.247a1.29 1.29 0 0 0-1.26 1.287 1.262 1.262 0 0 0 1.26 1.26 1.275 1.275 0 0 0 1.286-1.26 1.29 1.29 0 0 0-1.287-1.287zm-.967 3.883h1.955v11.278h-1.955zm10.904-.274a5.593 5.593 0 0 0-3.808 1.684v-1.41h-1.955v11.278h1.96v-8.147a4.15 4.15 0 0 1 3.15-1.634c1.63 0 2.35.752 2.35 2.44v7.34h1.96v-7.865c0-2.446-1.22-3.686-3.64-3.686zm14.798 1.718a4.67 4.67 0 0 0-3.582-1.718c-3.056 0-5.03 2.3-5.03 5.855s1.974 5.834 5.03 5.834a4.682 4.682 0 0 0 3.582-1.73v1.23c0 2-1.278 3.2-3.422 3.2a4.107 4.107 0 0 1-3.5-1.46l-.1-.12-1.013 1.49.072.07a5.713 5.713 0 0 0 4.53 1.68c4.67 0 5.37-3.08 5.37-4.92v-10.84h-1.96zm0 1.75v4.753a3.984 3.984 0 0 1-3.17 1.718c-2.047 0-3.422-1.64-3.422-4.08 0-2.48 1.343-4.08 3.422-4.08a3.966 3.966 0 0 1 3.17 1.7zm16.59-3.468a4.7 4.7 0 0 0-3.6 1.688v-1.414h-1.955v15.482h1.955v-5.644a4.577 4.577 0 0 0 3.6 1.714c3.01 0 5.032-2.383 5.032-5.925-.004-3.585-1.975-5.9-5.032-5.9zm2.987 5.9c0 2.486-1.38 4.154-3.43 4.154a3.968 3.968 0 0 1-3.17-1.7v-4.912a3.96 3.96 0 0 1 3.16-1.674c2.04.003 3.42 1.66 3.42 4.134zm9.44-5.9a5.92 5.92 0 0 0 .18 11.826 6.156 6.156 0 0 0 4.47-1.728l.07-.07-.97-1.317-.1.1a4.722 4.722 0 0 1-3.32 1.357 3.774 3.774 0 0 1-3.85-3.576h8.92v-.555c0-3.61-2.18-6.04-5.42-6.04zm-3.5 5.1a3.542 3.542 0 0 1 3.48-3.44 3.462 3.462 0 0 1 3.51 3.44zm13.4-3.262v-1.564h-1.96v11.278h1.95v-7.9a3.916 3.916 0 0 1 2.87-1.67 3.21 3.21 0 0 1 .66.062l.14.03v-2.025h-.12a4.677 4.677 0 0 0-3.56 1.79zm11.79-5.116a3.31 3.31 0 0 0-2.41-.88c-2.05 0-3.32 1.42-3.32 3.707v.73h-1.83v1.75h1.82v9.53h1.95v-9.53h2.24v-1.75h-2.24v-.72c0-1.32.57-2.04 1.61-2.04a1.867 1.867 0 0 1 1.29.52l.11.1.83-1.32zm5.19 3.278a5.56 5.56 0 0 0-5.58 5.9c0 3.432 2.34 5.925 5.58 5.925s5.58-2.493 5.58-5.925a5.56 5.56 0 0 0-5.58-5.9zm3.53 5.9c0 2-1.11 4.154-3.54 4.154-2.45 0-3.56-2.152-3.56-4.154s1.11-4.13 3.56-4.13c2.43 0 3.53 2.143 3.53 4.132zm6.54-4.062v-1.564h-1.95v11.278h1.95v-7.9a3.916 3.916 0 0 1 2.87-1.67 3.154 3.154 0 0 1 .66.062l.14.03v-2.025h-.12a4.676 4.676 0 0 0-3.56 1.79zm17.65-1.838a4.78 4.78 0 0 0-3.67 1.908 2.96 2.96 0 0 0-3.01-1.908 4.974 4.974 0 0 0-3.44 1.644v-1.37h-1.96v11.278h1.96v-8.15a3.715 3.715 0 0 1 2.78-1.63c1.27 0 1.91.727 1.91 2.164v7.616h1.95v-8.174a3.755 3.755 0 0 1 2.8-1.607c1.27 0 1.91.728 1.91 2.165v7.616h1.95v-8.1c0-2.255-1.11-3.452-3.2-3.452zm10.85 0a5.948 5.948 0 0 0-4.5 1.865l-.07.07.93 1.393.1-.11a4.282 4.282 0 0 1 3.3-1.49c1.62 0 2.66.865 2.66 2.21v1.683a4.772 4.772 0 0 0-3.54-1.323 3.72 3.72 0 0 0-3.98 3.753 3.81 3.81 0 0 0 3.98 3.776 4.95 4.95 0 0 0 3.53-1.36v1.08h1.95v-7.71c0-2.45-1.6-3.85-4.39-3.85zm2.43 7.06v2a3.59 3.59 0 0 1-2.92 1.29 2.308 2.308 0 1 1 0-4.577 3.59 3.59 0 0 1 2.92 1.288zm10.9-7.06a5.614 5.614 0 0 0-3.81 1.688v-1.414h-1.96v11.278h1.95v-8.147a4.162 4.162 0 0 1 3.15-1.634c1.62 0 2.34.752 2.34 2.44v7.34h1.96v-7.865c0-2.446-1.23-3.686-3.64-3.686zm11.9 1.77a3.162 3.162 0 0 1 2.71 1.39l.08.11 1.32-1.22-.07-.086a4.853 4.853 0 0 0-4.14-1.965 5.92 5.92 0 0 0 0 11.83 4.848 4.848 0 0 0 4.14-1.97l.06-.08-1.32-1.21-.08.11a3.2 3.2 0 0 1-2.71 1.39c-2.22 0-3.7-1.66-3.7-4.15 0-2.47 1.48-4.13 3.7-4.13zm11.14-1.77a5.92 5.92 0 0 0 .18 11.826 6.07 6.07 0 0 0 4.47-1.728l.08-.07-.97-1.317-.1.1a4.715 4.715 0 0 1-3.32 1.357 3.774 3.774 0 0 1-3.85-3.576h8.92v-.555c0-3.61-2.19-6.04-5.42-6.04zm-3.5 5.1a3.542 3.542 0 0 1 3.48-3.44 3.462 3.462 0 0 1 3.5 3.44zm26.93 3.442a21.54 21.54 0 0 0 2.03-3.873l.05-.11-1.6-.68-.12-.05-.04.13a14.566 14.566 0 0 1-1.55 3.32c-.66-.71-1.18-1.31-1.7-1.92-.42-.48-1.05-1.21-1.67-2.04 1.9-.99 3.82-2.03 3.82-4.34 0-1.88-1.4-3.11-3.57-3.11a3.737 3.737 0 0 0-3.96 3.66 7.057 7.057 0 0 0 1.12 3.38c-1.65.9-3.31 2.15-3.31 4.57 0 2.66 1.91 4.37 4.876 4.37a6.13 6.13 0 0 0 4.383-1.82c.59.61 1.157 1.15 1.6 1.52l.032.03h2.72l-.224-.21c-.95-.87-1.96-1.81-2.9-2.8zm-2.42.237a4.36 4.36 0 0 1-3.03 1.39 2.773 2.773 0 0 1-2.95-2.82 3.69 3.69 0 0 1 2.08-3.13c.56.79 1.19 1.58 1.86 2.34.39.47 1.1 1.26 2.03 2.23zm-.16-9.75c0 1.42-1.34 2.22-2.85 2.98a5.275 5.275 0 0 1-.84-2.47 2.006 2.006 0 0 1 2-2.1 1.522 1.522 0 0 1 1.69 1.61zm18.6 2.75a3.152 3.152 0 0 1 2.71 1.39l.08.11 1.32-1.22-.07-.08a4.843 4.843 0 0 0-4.14-1.96 5.92 5.92 0 0 0 0 11.83 4.833 4.833 0 0 0 4.13-1.96l.06-.09-1.32-1.21-.08.11a3.193 3.193 0 0 1-2.71 1.39c-2.21 0-3.7-1.66-3.7-4.15 0-2.47 1.483-4.13 3.7-4.13zm8.18.07v-1.56h-1.95v11.28h1.95v-7.9a3.916 3.916 0 0 1 2.87-1.67 3.154 3.154 0 0 1 .66.07l.14.03v-2.02h-.12a4.676 4.676 0 0 0-3.556 1.79zm10.5-1.83a5.92 5.92 0 0 0 .18 11.83 6.153 6.153 0 0 0 4.47-1.73l.07-.07-.97-1.31-.1.1a4.715 4.715 0 0 1-3.32 1.36 3.777 3.777 0 0 1-3.845-3.57h8.924v-.55c-.01-3.61-2.19-6.04-5.43-6.04zm-.02 1.66a3.462 3.462 0 0 1 3.51 3.44h-7a3.55 3.55 0 0 1 3.48-3.44zm12.42-1.66a5.862 5.862 0 0 0-4.5 1.87l-.07.07.93 1.4.1-.11a4.282 4.282 0 0 1 3.29-1.49c1.62 0 2.67.87 2.67 2.21V153a4.772 4.772 0 0 0-3.54-1.324 3.72 3.72 0 0 0-3.98 3.753 3.81 3.81 0 0 0 3.98 3.77 4.95 4.95 0 0 0 3.54-1.36v1.08h1.95v-7.71c.01-2.45-1.597-3.85-4.39-3.85zm2.43 7.06v2a3.59 3.59 0 0 1-2.92 1.29 2.308 2.308 0 1 1 0-4.57 3.59 3.59 0 0 1 2.92 1.29zm9.51 2.58a1.53 1.53 0 0 1-1.07.42c-.9 0-1-.9-1-1.3v-6.74h2.24v-1.74h-2.24v-3.01h-1.95v3.02h-1.82v1.75h1.822v7.1a2.376 2.376 0 0 0 2.57 2.7 2.954 2.954 0 0 0 2.14-.74l.06-.06-.6-1.54zm2.35-9.36H544v11.28h-1.95zm.96-3.88a1.29 1.29 0 0 0-1.26 1.29 1.275 1.275 0 0 0 2.55 0 1.29 1.29 0 0 0-1.29-1.28zm8.18 12.74l-3.57-8.77-.03-.07h-2.11l4.67 11.21.03.08h2.032l4.62-11.11.07-.17h-2.13l-3.58 8.86m8.16-12.74a1.29 1.29 0 0 0-1.26 1.29 1.273 1.273 0 0 0 2.545 0 1.286 1.286 0 0 0-1.29-1.28zm-.97 3.88h1.955v11.28h-1.95zm9.513 9.36a1.544 1.544 0 0 1-1.08.42c-.9 0-1-.9-1-1.3v-6.74h2.24v-1.74h-2.24v-3.01h-1.95v3.02h-1.83v1.746h1.83v7.1a2.376 2.376 0 0 0 2.565 2.7 2.964 2.964 0 0 0 2.14-.74l.058-.055-.6-1.53zm9.92-9.36l-3.573 8.85-3.57-8.77-.03-.07h-2.11l4.67 11.27-.71 1.62a1.468 1.468 0 0 1-1.53 1.09 2.49 2.49 0 0 1-.89-.172l-.14-.06-.3 1.71-.02.11.1.03a5.8 5.8 0 0 0 1.295.16 3.412 3.412 0 0 0 3.35-2.31l5.53-13.28.07-.17z" fill="#0f0a0c"></path><path d="M342.878 109.4c-.573 1.33 2.907 2.3 6.166 2.3a12.824 12.824 0 0 0 4.77-.9 24.2 24.2 0 0 0-4.694-1.7c-1.674-.446-5.52-1.375-6.242.3zm75.432-54.532a3.21 3.21 0 0 0-1.507-.78c-5.73-.86-17.43 26.475-13.884 42.933 8.52-9.29 20.22-35.98 15.39-42.15z" fill="none"></path><path d="M575.646 64.736c-3.327 6.078-8.053 16.935-13.967 25.2-5.33 7.448-16.06 21.365-31.27 20.9a22.116 22.116 0 0 1-7.59-1.52c-4.62-2.107-6.53-7.76-7.43-11.816-1.59-7.163-2.85-12.868-4.4-22.5-1.65-10.245-2.48-19.14-2.66-20.78a15.07 15.07 0 0 0-2.15-7.035 7.3 7.3 0 0 0-6.13-3.05c-3.3 0-5.88 2.034-9.3 6.1a91.962 91.962 0 0 0-9.91 14.67q-4.76 8.57-8.77 17.528c-2.66 5.972-4.76 10.862-6.28 14.67 0 0 1.82-47 1.93-48.956.22-3.744.92-5.868-1.97-5.868-4.59 0-5.41 2.21-5.73 5.08-.27 2.42-1.7 18.59-2.6 30.43-7.22 14.79-18.07 31.39-34.13 32.57-7.41.54-15.06-3.9-16.31-5.88 4.04-4.92 12.09-14.71 16.7-26.51 3.67-9.45 9.5-21.76 1.57-29.77a16.75 16.75 0 0 0-2.9-2.39c-15.85-9.8-29.68 21.03-30.26 36.31-.27 7 .26 15.14 3.43 21.97-3.63 2.77-7.66 4.12-12.28 5.1-4.34.92-9.99.86-14.01-1.09a25.2 25.2 0 0 0 4.04-5.31c3.38-6.51 4.26-13.13 2.65-18.41-3.3-10.83-8.86-18.62-12.99-27.84-1.99-4.45-1.917-8.44-2.847-10.66-1.5-3.59-3.565-4.8-7.78-4.21-4.56.63-6.735 3.5-6.92 8.2-.18 4.44.3 5.81.067 8.17-.836 8.42-3.676 13.05-6.86 19.81-4.68 9.92-14.6 27.34-27.636 31.17-17.74 5.2-21.51-16.39-21.51-16.39s25.41-9.47 29.56-31.33c1.52-8.01-1.71-16.97-13.654-17.82-8.07-.52-16.162 8.14-22.63 17.82a163.415 163.415 0 0 0-13.3 25V64.9L257 77.33V93.1c-.13 12.388-.312 24.135 4.64 25 2.83.496 4.81.007 8.04-10.812 5.04-16.9 14.134-35.29 23.02-45.96 4.48-5.38 8.705-8.76 11.81-8.858 6.864-.28 6.66 5.93 6.375 8.86 0 .04-.005.07-.01.1-1.157 8.1-10.985 20.24-24.283 23.13-2.03.58-7.15.49-5.5 10.41.71 4.28 6.07 25.1 26.81 22.66 15.08-1.77 23.86-10.78 35.71-31.49 0 0 8.5-15.05 9.75-26.14 5.11 7.25 13.22 18.79 13.22 29.09 0 6.873-3.01 13.36-5.82 16.46-2.62-.656-10.653-3.938-13.454-4.328a12.577 12.577 0 0 0-12.71 5.93c-1.54 2.484-.657 5.46.47 7.25 1.716 2.73 6.457 4.193 11.274 4.46 6.15.345 12.93-2.204 16.49-4.3 4 1.226 9.65 3.13 14.89 3.08 9.32-.08 15.62-2.483 21.84-7.34 4.93 5.46 12.42 8.395 21.52 8.594 15.26.2 28.13-14.624 35.37-24.914-.24 5.4-.55 12.767-.52 14.1.08 3.59 1.32 8.866 5.3 8.89 9.8.066 27.57-59.353 35.29-59.35 2.07 0 3.17 1.75 3.69 5.047s3.04 26.61 6.35 39.22c1.47 5.6 3.25 9.36 7.15 12.48 2.99 2.39 12.44 6.8 24.22 4.23 20.933-4.57 36.076-33.1 38.36-37.66 6.91-13.81 2.42-21.75-.69-16.23zm-226.6 46.958c-3.258 0-6.74-.97-6.166-2.3.72-1.672 4.568-.742 6.24-.3a24.2 24.2 0 0 1 4.696 1.7 12.824 12.824 0 0 1-4.772.9zM416.8 54.09a3.21 3.21 0 0 1 1.507.778c4.83 6.17-6.87 32.86-15.39 42.153-3.545-16.45 8.157-43.79 13.883-42.93zM269.483.046H257.05v69.46l12.433-12.427V.04m-37.358 73.28c0-17.135-4.674-31.776-24.922-31.776-9.035 0-15.733 3.892-20.872 10.9h-.31V43.57h-12.46v73.21h12.46V82.047c0-13.084 1.1-28.97 18.23-28.97 14.49 0 15.42 10.59 15.42 22.43v31.373l12.46-12.46z"></path><path fill="#79c000" d="M326.583 0L163.22 163.302h7.875L334.457 0h-7.874"></path></svg>