<svg width="200" height="56" viewBox="0 0 200 56" fill="none" xmlns="http://www.w3.org/2000/svg">
<path d="M34.0973 36.7294H30.9545V27.4239C30.9545 25.5817 30.6212 24.2591 29.9069 23.4561C29.1926 22.6531 28.0974 22.2279 26.4784 22.2279C24.1927 22.2279 22.6689 22.9837 21.8118 24.448V36.7294H18.6689V19.8189H21.0975L21.4308 21.6139C22.9546 20.1968 25.0022 19.441 27.0498 19.441C31.6688 19.441 34.0021 22.0862 34.0021 27.3767L34.0973 36.7294Z" fill="#026BE2"/>
<path d="M27.3355 52.1756C27.0498 51.9866 26.7641 51.8922 26.4308 51.8922C25.526 51.8922 24.8117 52.6007 24.8117 53.4982C24.8117 54.1595 25.2403 54.7736 25.8593 55.0098C26.0498 55.057 26.2403 55.1042 26.4308 55.1042C27.3355 55.1042 28.0498 54.3957 28.0498 53.4982C28.0498 52.9786 27.7641 52.5062 27.3355 52.1756Z" fill="#026BE2"/>
<path d="M22.907 54.065C8.43098 52.1284 -1.71175 38.9495 0.240606 24.637C1.71678 13.5837 10.0976 4.70335 21.0975 2.43602V2.57773C21.0975 3.00285 21.1451 3.47521 21.288 3.90034C7.81194 6.7345 -0.807 19.8189 2.00249 33.1867C4.19294 43.3897 12.5738 51.1836 23.0022 52.6007C22.907 52.8841 22.8594 53.2148 22.8594 53.4982C22.8594 53.6871 22.907 53.8761 22.907 54.065Z" fill="#026BE2"/>
<path d="M29.9069 54.065C29.9545 53.8761 29.9545 53.6871 29.9545 53.4982C29.9545 53.1675 29.9069 52.8841 29.8117 52.6007C43.4782 50.7585 53.0019 38.241 51.0971 24.7314C49.6686 14.3867 41.8591 6.0732 31.5259 3.90034C31.6212 3.47521 31.7164 3.05009 31.7164 2.57773V2.43602C46.0019 5.36465 55.1923 19.2048 52.2876 33.3756C50.0495 44.2872 41.0496 52.6007 29.9069 54.065Z" fill="#026BE2"/>
<path d="M28.5736 1.16064C27.7641 -0.020257 26.1927 -0.350909 24.9546 0.404868C24.6689 0.593812 24.4308 0.829992 24.1927 1.16064C23.6213 2.01089 23.5736 3.14456 24.1927 3.99481C24.9546 5.17571 26.5736 5.5536 27.7641 4.79782C28.0974 4.60888 28.3831 4.32546 28.5736 3.99481C29.145 3.09732 29.145 2.01089 28.5736 1.16064Z" fill="#026BE2"/>
<path d="M91.9537 38.2882H87.9538V26.4792C87.9538 24.1646 87.5252 22.5113 86.6681 21.4722C85.811 20.433 84.3348 19.9134 82.3348 19.9134C79.4301 19.9134 77.4777 20.8581 76.4301 22.7003V38.2882H72.4302V16.843H75.5254L75.9539 19.1103C77.9063 17.3626 80.4777 16.3707 83.0967 16.3707C89.0014 16.3707 91.9537 19.7244 91.9537 26.4319V38.2882Z" fill="#026BE2"/>
<path d="M200 38.2882H196V26.4792C196 24.1646 195.571 22.5113 194.714 21.4722C193.857 20.433 192.381 19.9134 190.381 19.9134C187.476 19.9134 185.524 20.8581 184.476 22.7003V38.2882H180.476V16.843H183.572L184 19.1103C185.953 17.3626 188.524 16.3707 191.143 16.3707C197.048 16.3707 200 19.7244 200 26.4319V38.2882Z" fill="#026BE2"/>
<path d="M114.573 16.9375L106.096 38.3354H102.001L93.4299 16.9375H97.1918L104.001 33.8008L110.715 16.9375H114.573Z" fill="#026BE2"/>
<path d="M121.287 38.2882H117.715V16.9375H121.287V38.2882Z" fill="#026BE2"/>
<path d="M133.62 38.7133C130.287 38.7133 127.81 38.1937 126.049 37.2018L126.525 33.0922C128.334 34.5565 130.715 35.3123 133.668 35.3123C136.906 35.3123 138.525 34.4148 138.525 32.6199C138.525 32.053 138.334 31.5334 137.953 31.1083C137.525 30.6359 136.953 30.2108 136.382 29.9746C135.572 29.5968 134.763 29.2661 133.906 29.0299L130.668 28.038L128.81 27.235C127.953 26.8571 127.191 26.3375 126.572 25.6289C125.906 24.8259 125.62 23.7867 125.668 22.7475C125.668 21.0943 126.382 19.4882 127.668 18.4018C128.429 17.7877 129.287 17.2681 130.239 16.9847C131.429 16.6068 132.715 16.4179 133.953 16.4651C134.667 16.4651 135.334 16.5124 136.048 16.6068C136.763 16.7013 137.429 16.7958 138.048 16.9375C138.62 17.0792 139.239 17.2209 139.81 17.4571C140.286 17.5988 140.763 17.835 141.191 18.0239L140.81 21.7083C138.191 20.433 136.001 19.8189 134.191 19.8189C133.572 19.8189 133.001 19.8661 132.382 19.9606C131.858 20.0551 131.334 20.1968 130.858 20.433C130.429 20.6219 130.096 20.9053 129.81 21.236C129.572 21.5666 129.429 21.9917 129.429 22.4169C129.382 22.9365 129.572 23.4561 129.906 23.834C130.334 24.2118 130.858 24.5425 131.429 24.6842C132.096 24.9204 132.953 25.2038 133.953 25.4872C134.953 25.7706 136.144 26.1485 137.477 26.6681C138.096 26.9043 138.667 27.1877 139.239 27.4711C139.81 27.7545 140.334 28.1324 140.81 28.6048C141.286 29.0772 141.667 29.644 141.953 30.2581C142.286 31.0138 142.429 31.8168 142.382 32.6199C142.382 33.2812 142.286 33.9425 142.096 34.6038C141.858 35.3596 141.429 36.0681 140.858 36.5877C140.096 37.2962 139.144 37.8158 138.144 38.0992C136.763 38.6188 135.191 38.8078 133.62 38.7133Z" fill="#026BE2"/>
<path d="M150.239 38.2882H146.667V16.9375H150.239V38.2882Z" fill="#026BE2"/>
<path d="M174 35.6902C171.857 37.7214 169.143 38.7133 165.858 38.7133C164.286 38.7133 162.762 38.4771 161.334 37.9103C160.001 37.3907 158.762 36.6349 157.762 35.643C156.762 34.651 155.953 33.4701 155.429 32.1475C154.858 30.6832 154.572 29.1716 154.62 27.6128C154.62 26.0541 154.858 24.5425 155.429 23.0782C156.477 20.3857 158.62 18.3073 161.334 17.3154C164.286 16.2289 167.477 16.2289 170.429 17.3154C171.762 17.835 173 18.5908 174 19.5827C175 20.5747 175.81 21.8028 176.334 23.0782C176.905 24.4953 177.191 26.0541 177.191 27.6128C177.191 30.9666 176.096 33.6591 174 35.6902ZM171.286 21.9917C170 20.5747 168.191 19.8661 165.858 19.8661C164.762 19.8661 163.715 20.0551 162.715 20.433C161.81 20.7636 161.048 21.3304 160.381 22.039C159.715 22.7475 159.239 23.5978 158.953 24.4953C158.334 26.5264 158.334 28.7465 158.953 30.7777C159.239 31.6751 159.715 32.5254 160.381 33.2339C161 33.9425 161.81 34.4621 162.715 34.84C163.715 35.2178 164.762 35.4068 165.858 35.4068C166.953 35.4068 168 35.2178 169 34.84C170.81 34.1314 172.143 32.6199 172.715 30.8249C173.048 29.7857 173.191 28.7465 173.191 27.6601C173.191 25.2983 172.572 23.4561 171.286 21.9917Z" fill="#026BE2"/>
</svg>
