<svg width="346" height="258" viewBox="0 0 346 258" fill="none" xmlns="http://www.w3.org/2000/svg">
  <path
    d="M197.059 65.5C211.971 65.5 224.059 53.4117 224.059 38.5C224.059 23.5883 211.971 11.5 197.059 11.5C182.147 11.5 170.059 23.5883 170.059 38.5C170.059 53.4117 182.147 65.5 197.059 65.5Z"
    fill="#69402E" />
  <path d="M171.405 211.826L170.69 199.588L217.556 191.003L218.612 209.067L171.405 211.826Z" fill="#FFE2E2" />
  <path
    d="M173.675 190.641L175.055 214.245L160.194 215.113L157.945 176.648C159.897 176.534 161.852 176.806 163.699 177.447C165.545 178.089 167.248 179.087 168.708 180.387C170.169 181.686 171.359 183.26 172.212 185.02C173.064 186.779 173.561 188.689 173.675 190.641Z"
    fill="#2F2E41" />
  <path d="M191.789 211.714L184.004 221.185L143.768 195.666L155.257 181.688L191.789 211.714Z" fill="#FFE2E2" />
  <path
    d="M175.737 225.726L190.751 207.46L202.251 216.913L177.785 246.679C176.275 245.438 175.024 243.911 174.104 242.187C173.184 240.462 172.612 238.573 172.422 236.627C172.232 234.681 172.427 232.717 172.996 230.847C173.564 228.976 174.496 227.236 175.737 225.726Z"
    fill="#2F2E41" />
  <path
    d="M169.387 167.67L164.067 192.749C163.944 193.326 163.951 193.924 164.087 194.498C164.223 195.073 164.484 195.61 164.852 196.072C165.219 196.533 165.685 196.908 166.215 197.168C166.744 197.429 167.325 197.569 167.915 197.578L220.213 198.422C220.803 198.431 221.387 198.31 221.924 198.068C222.462 197.825 222.939 197.467 223.321 197.018C223.704 196.569 223.982 196.042 224.137 195.473C224.292 194.904 224.319 194.308 224.217 193.727L219.642 167.805C219.479 166.879 218.994 166.04 218.274 165.436C217.554 164.831 216.643 164.5 215.703 164.5H173.3C172.383 164.5 171.494 164.815 170.782 165.392C170.069 165.969 169.577 166.773 169.387 167.67Z"
    fill="#2F2E41" />
  <path
    d="M178.059 176.5C178.059 176.5 127.059 144.5 117.059 161.5C112.059 170 114.559 178.25 118.309 184.375C121.789 189.952 126.785 194.423 132.712 197.266L174.059 217.5L189.059 201.5L179.059 192.5L178.059 176.5Z"
    fill="#2F2E41" />
  <path
    d="M204.059 171.5C204.059 171.5 270.059 152.5 257.059 188.5C244.059 224.5 195.059 210.5 195.059 210.5L190.059 195.5L207.059 183.5L204.059 171.5Z"
    fill="#2F2E41" />
  <path
    d="M197.398 69.2264C210.962 69.2264 221.959 58.23 221.959 44.6653C221.959 31.1006 210.962 20.1043 197.398 20.1043C183.833 20.1043 172.837 31.1006 172.837 44.6653C172.837 58.23 183.833 69.2264 197.398 69.2264Z"
    fill="#FFE2E2" />
  <path
    d="M198.685 175.469C188.479 175.314 178.325 173.977 168.427 171.482L168.135 171.402L154.429 108.357C153.196 102.817 154.035 97.0178 156.786 92.0537C159.537 87.0896 164.011 83.3048 169.362 81.414C185.892 75.4833 203.908 75.1235 220.662 80.3896C226.283 82.2012 231.015 86.0657 233.913 91.212C236.811 96.3583 237.663 102.408 236.297 108.154L220.989 171.35L220.773 171.452C214.411 174.466 206.456 175.469 198.685 175.469Z"
    fill="#CCCCCC" />
  <path
    d="M180.274 180.366C180.772 178.983 181.567 177.726 182.603 176.683C183.64 175.64 184.892 174.837 186.272 174.331C187.652 173.824 189.126 173.626 190.591 173.751C192.056 173.876 193.475 174.321 194.75 175.054L221.736 151.63L224.178 170.038L198.177 189.46C196.804 191.519 194.723 193.003 192.328 193.631C189.934 194.258 187.393 193.986 185.186 192.865C182.98 191.744 181.261 189.852 180.355 187.549C179.45 185.245 179.421 182.69 180.274 180.366Z"
    fill="#FFB8B8" />
  <path
    d="M206.012 185.476C205.573 185.475 205.136 185.411 204.716 185.285C204.033 185.086 203.408 184.727 202.892 184.237C202.377 183.747 201.986 183.141 201.753 182.469L198.496 173.24C198.191 172.387 198.152 171.462 198.385 170.587C198.617 169.711 199.11 168.927 199.798 168.338L236.567 146.264L222.073 81.6025L222.442 81.5137C222.592 81.4766 237.442 78.0967 243.527 94.3242C247.789 105.689 263.559 130.401 262.446 147.101C262.235 150.441 260.904 153.612 258.668 156.103C256.432 158.594 253.422 160.259 250.124 160.828L208.736 184.541C207.957 185.145 206.999 185.474 206.012 185.476Z"
    fill="#CCCCCC" />
  <path
    d="M210.136 178.173C209.638 176.789 208.843 175.532 207.807 174.489C206.771 173.446 205.519 172.644 204.139 172.137C202.759 171.631 201.284 171.433 199.819 171.558C198.355 171.683 196.935 172.127 195.661 172.86L168.674 149.436L166.233 167.844L192.234 187.266C193.607 189.326 195.688 190.81 198.082 191.437C200.476 192.065 203.017 191.792 205.224 190.671C207.431 189.55 209.15 187.659 210.055 185.355C210.96 183.052 210.989 180.496 210.136 178.173Z"
    fill="#FFB8B8" />
  <path
    d="M187.106 185.476C186.12 185.474 185.162 185.145 184.382 184.541L139.994 162.828C136.696 162.259 133.686 160.594 131.45 158.103C129.214 155.612 127.883 152.441 127.672 149.101C126.559 132.401 145.329 105.689 149.591 94.3242C155.676 78.0967 170.526 81.4756 170.677 81.5137L171.045 81.6025L153.551 148.264L193.32 168.338C194.008 168.927 194.501 169.711 194.733 170.587C194.966 171.462 194.927 172.387 194.622 173.24L191.365 182.469C191.132 183.141 190.741 183.747 190.226 184.237C189.71 184.727 189.085 185.086 188.402 185.285C187.982 185.411 187.545 185.475 187.106 185.476Z"
    fill="#CCCCCC" />
  <path
    d="M240.059 195.5H151.059C149.203 195.498 147.424 194.76 146.112 193.447C144.799 192.135 144.061 190.356 144.059 188.5V139.5C144.061 137.644 144.799 135.865 146.112 134.553C147.424 133.24 149.203 132.502 151.059 132.5H240.059C241.915 132.502 243.694 133.24 245.006 134.553C246.319 135.865 247.057 137.644 247.059 139.5V188.5C247.057 190.356 246.319 192.135 245.006 193.447C243.694 194.76 241.915 195.498 240.059 195.5Z"
    fill="#3FE198" />
  <path
    d="M195.559 170C198.873 170 201.559 167.314 201.559 164C201.559 160.686 198.873 158 195.559 158C192.245 158 189.559 160.686 189.559 164C189.559 167.314 192.245 170 195.559 170Z"
    fill="white" />
  <path
    d="M172.591 43.6657C171.135 39.9734 173.523 35.5733 177.066 33.7847C180.609 31.9961 184.885 32.3363 188.675 33.5151C191.859 34.5057 194.844 36.0409 197.951 37.2535C201.015 38.611 204.361 39.2069 207.704 38.9904C211.019 38.6161 214.317 36.7576 215.673 33.7104C217.079 30.5518 216.123 26.6973 213.958 24.0017C211.655 21.3956 208.674 19.4796 205.346 18.4668C198.039 15.8924 189.598 15.8171 182.814 19.5593C176.03 23.3015 171.42 31.2696 172.822 38.8894"
    fill="#69402E" />
  <path
    d="M30.6625 184.818C31.8979 171.513 35.3102 158.501 40.763 146.301C42.2828 142.906 43.9555 139.586 45.7811 136.341C45.8727 136.171 45.8948 135.972 45.8427 135.786C45.7906 135.601 45.6684 135.443 45.5019 135.345C45.3354 135.248 45.1376 135.219 44.9502 135.265C44.7628 135.31 44.6006 135.427 44.4976 135.59C37.8583 147.411 33.2071 160.243 30.7298 173.573C30.0407 177.295 29.5228 181.044 29.176 184.818C29.0879 185.771 30.5749 185.765 30.6625 184.818Z"
    fill="#E6E6E6" />
  <path
    d="M49.3814 138.724C54.5809 138.724 58.7958 134.509 58.7958 129.31C58.7958 124.111 54.5809 119.896 49.3814 119.896C44.182 119.896 39.967 124.111 39.967 129.31C39.967 134.509 44.182 138.724 49.3814 138.724Z"
    fill="#3FE198" />
  <path
    d="M31.6255 185.068C32.427 176.437 34.6406 167.995 38.1781 160.081C39.1641 157.878 40.2492 155.724 41.4336 153.619C41.493 153.508 41.5073 153.38 41.4735 153.259C41.4397 153.139 41.3604 153.036 41.2524 152.973C41.1444 152.91 41.0161 152.891 40.8946 152.921C40.773 152.95 40.6678 153.026 40.601 153.132C36.2938 160.801 33.2763 169.125 31.6691 177.773C31.2221 180.188 30.8861 182.62 30.6611 185.068C30.604 185.686 31.5687 185.682 31.6255 185.068Z"
    fill="#E6E6E6" />
  <path
    d="M43.7694 155.165C47.1425 155.165 49.8769 152.431 49.8769 149.058C49.8769 145.685 47.1425 142.95 43.7694 142.95C40.3963 142.95 37.6618 145.685 37.6618 149.058C37.6618 152.431 40.3963 155.165 43.7694 155.165Z"
    fill="#3FE198" />
  <path
    d="M30.4083 184.492C25.7312 177.193 22.2845 169.175 20.2059 160.759C19.6286 158.416 19.1594 156.05 18.7983 153.662C18.7774 153.538 18.7095 153.428 18.6087 153.354C18.508 153.28 18.3823 153.247 18.2583 153.264C18.1343 153.281 18.0216 153.345 17.944 153.443C17.8664 153.541 17.8299 153.666 17.8424 153.79C19.163 162.486 21.9039 170.906 25.9554 178.713C27.0882 180.892 28.3191 183.016 29.648 185.085C29.9828 185.607 30.7411 185.011 30.4083 184.492Z"
    fill="#E6E6E6" />
  <path
    d="M17.8347 154.736C21.2078 154.736 23.9422 152.002 23.9422 148.629C23.9422 145.256 21.2078 142.521 17.8347 142.521C14.4616 142.521 11.7271 145.256 11.7271 148.629C11.7271 152.002 14.4616 154.736 17.8347 154.736Z"
    fill="#3FE198" />
  <path
    d="M11.6586 189.896V177.896C11.6599 176.703 12.1345 175.559 12.9781 174.715C13.8217 173.872 14.9655 173.397 16.1586 173.396H44.1586C45.3516 173.397 46.4954 173.872 47.3391 174.715C48.1827 175.559 48.6572 176.703 48.6586 177.896V189.896C48.6572 191.089 48.1827 192.232 47.3391 193.076C46.4954 193.92 45.3516 194.394 44.1586 194.396H16.1586C14.9655 194.394 13.8217 193.92 12.9781 193.076C12.1345 192.232 11.6599 191.089 11.6586 189.896Z"
    fill="#F2F2F2" />
  <path
    d="M326.643 175.929C325.633 175.929 324.645 176.228 323.806 176.789C322.966 177.351 322.311 178.148 321.925 179.081C321.538 180.015 321.437 181.042 321.634 182.032C321.831 183.023 322.317 183.933 323.032 184.647C323.746 185.361 324.656 185.848 325.647 186.045C326.637 186.242 327.664 186.141 328.597 185.754C329.531 185.368 330.328 184.713 330.889 183.873C331.45 183.033 331.75 182.046 331.75 181.036C331.75 179.681 331.212 178.382 330.254 177.425C329.296 176.467 327.997 175.929 326.643 175.929ZM326.643 184.179C326.021 184.179 325.414 183.994 324.897 183.649C324.38 183.304 323.977 182.813 323.739 182.239C323.501 181.664 323.439 181.032 323.56 180.423C323.682 179.813 323.981 179.253 324.421 178.813C324.86 178.374 325.42 178.075 326.03 177.953C326.639 177.832 327.271 177.894 327.846 178.132C328.42 178.37 328.911 178.773 329.256 179.29C329.602 179.807 329.786 180.414 329.786 181.036C329.786 181.869 329.455 182.669 328.865 183.258C328.276 183.848 327.476 184.179 326.643 184.179Z"
    fill="#07403F" />
  <path
    d="M307 172H326.643V191.441C326.643 192.12 326.373 192.771 325.893 193.251C325.414 193.73 324.763 194 324.084 194H309.559C308.88 194 308.229 193.73 307.749 193.251C307.27 192.771 307 192.12 307 191.441V172Z"
    fill="#07403F" />
</svg>