<?xml version="1.0" standalone="no"?>
<!DOCTYPE svg PUBLIC "-//W3C//DTD SVG 20010904//EN"
 "http://www.w3.org/TR/2001/REC-SVG-20010904/DTD/svg10.dtd">
<svg version="1.0" xmlns="http://www.w3.org/2000/svg"
 width="1000.000000pt" height="1000.000000pt" viewBox="0 0 1000.000000 1000.000000"
 preserveAspectRatio="xMidYMid meet">
<metadata>
Created by potrace 1.14, written by Peter Selinger 2001-2017
</metadata>
<g transform="translate(0.000000,1000.000000) scale(0.100000,-0.100000)"
fill="#000000" stroke="none">
<path d="M1610 5000 l0 -5000 101 98 c55 53 154 149 218 212 220 214 676 657
747 726 39 38 182 177 318 309 135 132 299 290 363 353 65 62 223 216 353 342
129 126 282 275 340 331 58 56 224 218 370 360 146 141 326 316 400 389 74 72
240 233 369 358 128 125 292 284 365 355 72 70 134 127 138 127 5 0 8 7 8 15
0 8 4 15 8 15 4 0 98 87 208 194 l199 195 1095 0 c602 0 1113 0 1136 1 l40 0
0 2810 0 2810 -3388 0 -3388 0 0 -5000z m6365 2190 l0 -2400 -1013 0 -1014 0
-91 -89 c-51 -50 -147 -143 -213 -208 -379 -368 -641 -623 -731 -710 -190
-184 -538 -522 -684 -665 -81 -79 -258 -251 -394 -383 -136 -132 -298 -289
-360 -350 -62 -60 -217 -211 -345 -335 -128 -124 -281 -272 -340 -330 -59 -58
-221 -215 -360 -350 -139 -135 -286 -278 -326 -317 -41 -40 -76 -73 -79 -73
-2 0 -5 1937 -5 4305 l0 4305 2978 0 2977 0 0 -2400z"/>
</g>
</svg>
