<svg width="514" height="434" viewBox="0 0 514 434" fill="none" xmlns="http://www.w3.org/2000/svg">
  <g clip-path="url(#clip0_24_186)">
    <path d="M507.08 148.495C507.684 150.852 508.249 153.22 508.776 155.6H329.324V148.495H507.08Z" fill="#E6E6E6" />
    <path
      d="M501.36 129.768C498.471 121.612 495.102 113.634 491.271 105.876C490.093 103.484 488.869 101.116 487.599 98.7718C487.391 98.3695 487.168 97.9672 486.945 97.5649V150.435H502.452V132.915L501.36 129.768Z"
      fill="#E6E6E6" />
    <path d="M491.271 105.876H486.945V98.772H487.599C488.871 101.114 490.095 103.482 491.271 105.876Z" fill="#CCCCCC" />
    <path d="M501.36 129.768H486.945V136.873H502.452V132.915L501.36 129.768Z" fill="#CCCCCC" />
    <path d="M478.548 89.0864H463.044V150.436H478.548V89.0864Z" fill="#E6E6E6" />
    <path d="M478.548 98.7732H463.044V105.877H478.548V98.7732Z" fill="#CCCCCC" />
    <path d="M478.548 129.771H463.044V136.874H478.548V129.771Z" fill="#CCCCCC" />
    <path
      d="M407.844 88.7295H352.225C351.368 88.7308 350.546 89.0718 349.94 89.6777C349.334 90.2836 348.993 91.1051 348.992 91.962V147.562C348.993 147.878 349.039 148.192 349.128 148.495C349.33 149.16 349.74 149.742 350.297 150.156C350.855 150.569 351.531 150.793 352.225 150.794H407.844C408.538 150.793 409.214 150.57 409.772 150.156C410.329 149.742 410.739 149.16 410.941 148.495C411.03 148.192 411.076 147.878 411.077 147.562V91.962C411.076 91.1051 410.735 90.2836 410.129 89.6777C409.523 89.0718 408.701 88.7308 407.844 88.7295Z"
      fill="#E6E6E6" />
    <path
      d="M403.891 92.6804H356.178C355.32 92.6817 354.499 93.0227 353.893 93.6286C353.286 94.2346 352.945 95.056 352.944 95.913V143.611C352.945 144.468 353.286 145.289 353.893 145.895C354.499 146.501 355.32 146.842 356.178 146.843H403.891C404.749 146.842 405.57 146.501 406.177 145.895C406.783 145.289 407.124 144.468 407.125 143.611V95.913C407.124 95.056 406.783 94.2346 406.177 93.6286C405.57 93.0227 404.749 92.6817 403.891 92.6804Z"
      fill="white" />
    <path
      d="M395.57 100.999H364.499C363.642 101 362.82 101.341 362.214 101.947C361.608 102.553 361.266 103.374 361.265 104.231V135.292C361.266 136.149 361.608 136.971 362.214 137.577C362.82 138.183 363.642 138.524 364.499 138.525H395.57C396.427 138.52 397.247 138.178 397.852 137.573C398.458 136.968 398.8 136.148 398.804 135.292V104.231C398.803 103.374 398.462 102.553 397.856 101.947C397.249 101.341 396.428 101 395.57 100.999Z"
      fill="#CCCCCC" />
    <path
      d="M393.655 129.814L387.092 118.45C386.966 118.232 386.784 118.05 386.566 117.924C386.347 117.798 386.1 117.732 385.847 117.732C385.595 117.732 385.347 117.798 385.129 117.924C384.91 118.05 384.729 118.232 384.603 118.45L379.81 126.748L373.526 115.867C373.399 115.649 373.218 115.467 373 115.341C372.781 115.215 372.533 115.149 372.281 115.149C372.029 115.149 371.781 115.215 371.562 115.341C371.344 115.467 371.163 115.649 371.037 115.867L364.473 127.231L356.666 140.749H371.724L370.232 143.332H401.463L393.655 129.814Z"
      fill="white" />
    <path
      d="M391.338 112.335C393.836 112.335 395.86 110.311 395.86 107.814C395.86 105.318 393.836 103.294 391.338 103.294C388.841 103.294 386.816 105.318 386.816 107.814C386.816 110.311 388.841 112.335 391.338 112.335Z"
      fill="white" />
    <path
      d="M513.943 198.693C513.892 195.906 513.782 193.133 513.612 190.375C513.54 189.053 513.454 187.738 513.346 186.424H483.008C482.15 186.425 481.329 186.766 480.723 187.372C480.116 187.978 479.775 188.799 479.774 189.656V245.256C479.772 245.51 479.804 245.764 479.867 246.01C480.037 246.715 480.439 247.343 481.009 247.792C481.578 248.242 482.282 248.487 483.008 248.488H510.975C511.119 247.67 511.255 246.836 511.377 246.01C511.456 245.522 511.536 245.026 511.607 244.538C511.78 243.367 511.945 242.196 512.096 241.025C512.312 239.43 512.506 237.828 512.678 236.219C513.31 230.451 513.717 224.62 513.9 218.728V218.72C513.964 216.501 513.998 214.272 514 212.033V203.413C514 201.832 513.986 200.259 513.943 198.693Z"
      fill="#E6E6E6" />
    <path
      d="M513.943 198.693C513.892 195.906 513.782 193.133 513.612 190.375H486.96C486.103 190.376 485.281 190.717 484.675 191.323C484.069 191.929 483.727 192.75 483.726 193.607V241.305C483.727 242.162 484.069 242.984 484.675 243.589C485.281 244.195 486.103 244.536 486.96 244.538H511.607C511.78 243.367 511.945 242.196 512.096 241.025C512.312 239.43 512.506 237.828 512.678 236.219C513.31 230.451 513.717 224.62 513.9 218.728V218.72C513.964 216.501 513.998 214.272 514 212.033V203.413C514 201.832 513.986 200.259 513.943 198.693Z"
      fill="white" />
    <path
      d="M513.943 198.693H495.281C494.424 198.694 493.602 199.035 492.996 199.641C492.39 200.247 492.049 201.069 492.047 201.926V232.987C492.049 233.844 492.39 234.665 492.996 235.271C493.602 235.877 494.424 236.218 495.281 236.219H512.678C513.31 230.451 513.717 224.62 513.9 218.728V218.72C513.964 216.501 513.998 214.272 514 212.033V203.413C514 201.832 513.986 200.259 513.943 198.693Z"
      fill="#CCCCCC" />
    <path
      d="M513.9 218.728C513.72 224.618 513.313 230.449 512.678 236.219C512.506 237.828 512.312 239.43 512.096 241.025H501.015L502.51 238.446H487.448L492.047 230.48L495.252 224.927L501.82 213.563C501.945 213.344 502.126 213.161 502.344 213.034C502.563 212.908 502.811 212.841 503.063 212.841C503.316 212.841 503.564 212.908 503.782 213.034C504.001 213.161 504.181 213.344 504.306 213.563L510.594 224.446L513.9 218.728Z"
      fill="white" />
    <path d="M459.453 58.0922H329.324V50.9878H453C455.199 53.308 457.35 55.6762 459.453 58.0922Z" fill="#E6E6E6" />
    <path d="M398.445 8.82129C403.748 11.7378 408.917 14.8625 413.952 18.1956V52.9202H398.445V8.82129Z"
      fill="#E6E6E6" />
    <path d="M413.948 32.2576H398.444V39.3612H413.948V32.2576Z" fill="#CCCCCC" />
    <path
      d="M437.852 36.4414V52.9201H422.345V24.0356C425.959 26.672 429.492 29.4136 432.944 32.2606C434.596 33.6255 436.232 35.0191 437.852 36.4414Z"
      fill="#E6E6E6" />
    <path d="M437.852 36.4415V39.358H422.345V32.2607H432.944C434.596 33.6256 436.232 35.0192 437.852 36.4415Z"
      fill="#CCCCCC" />
    <path
      d="M382.614 0.905117C386.717 2.75121 390.751 4.71946 394.715 6.80988L391.525 13.2462L380.925 34.66L377.771 41.0245L372.834 50.9878L371.749 53.1788L367.33 50.9878L357.859 46.2971L363.874 34.1428H363.881L367.028 27.7783L377.635 6.3645L380.753 0.0718385L380.789 0L382.614 0.905117Z"
      fill="#E6E6E6" />
    <path
      d="M394.679 6.87452L391.525 13.2462L377.634 6.3645L380.753 0.0718341L380.789 0L382.614 0.905109L394.679 6.87452Z"
      fill="#CCCCCC" />
    <path d="M367.028 27.7801L363.876 34.1462L377.77 41.0229L380.923 34.6568L367.028 27.7801Z" fill="#CCCCCC" />
    <path
      d="M511.377 246.01C511.255 246.836 511.119 247.67 510.975 248.489C510.724 250.04 510.45 251.577 510.156 253.115H329.324V246.01H511.377Z"
      fill="#E6E6E6" />
    <path d="M413.948 186.599H398.444V247.949H413.948V186.599Z" fill="#E6E6E6" />
    <path d="M413.948 196.286H398.444V203.39H413.948V196.286Z" fill="#CCCCCC" />
    <path d="M413.948 227.284H398.444V234.387H413.948V227.284Z" fill="#CCCCCC" />
    <path d="M437.85 186.599H422.346V247.949H437.85V186.599Z" fill="#E6E6E6" />
    <path d="M437.85 196.286H422.346V203.39H437.85V196.286Z" fill="#CCCCCC" />
    <path d="M437.85 227.284H422.346V234.387H437.85V227.284Z" fill="#CCCCCC" />
    <path d="M385.086 186.346L357.857 241.326L371.751 248.202L398.98 193.222L385.086 186.346Z" fill="#E6E6E6" />
    <path d="M380.786 195.027L377.634 201.393L391.528 208.27L394.681 201.904L380.786 195.027Z" fill="#CCCCCC" />
    <path d="M367.028 222.806L363.876 229.172L377.77 236.049L380.923 229.683L367.028 222.806Z" fill="#CCCCCC" />
    <path
      d="M210.4 273.388C211.048 273.76 211.665 274.184 212.247 274.653L276.221 254.751L279.829 238.884L304.494 241.197L300.839 269.907C300.543 272.226 299.503 274.387 297.875 276.065C296.246 277.743 294.117 278.848 291.807 279.214L216.519 291.13C215.421 293.791 213.538 296.055 211.121 297.62C208.704 299.186 205.868 299.978 202.989 299.893C200.11 299.808 197.326 298.848 195.006 297.142C192.686 295.437 190.941 293.065 190.002 290.343C189.064 287.622 188.976 284.679 189.751 281.906C190.526 279.134 192.128 276.663 194.342 274.822C196.556 272.981 199.279 271.858 202.147 271.602C205.016 271.346 207.894 271.969 210.4 273.388Z"
      fill="#FFB8B8" />
    <path
      d="M315.894 250.715L315.47 243.474V243.467L315.355 241.485L314.105 220.164C314.479 215.72 313.076 211.308 310.203 207.895C307.33 204.482 303.222 202.346 298.777 201.954C297.498 201.84 296.211 201.874 294.94 202.055C291.164 202.589 287.68 204.382 285.052 207.143C282.423 209.905 280.805 213.473 280.46 217.269L277.866 228.059L273.332 246.93C273.011 248.25 273.144 249.64 273.71 250.875C274.276 252.111 275.241 253.12 276.451 253.74C277.149 254.107 277.914 254.332 278.7 254.4L286.259 255.076L293.539 255.722L301.939 256.469L302.543 256.52L304.095 256.663L309.29 257.123H309.304C310.172 257.193 311.045 257.078 311.865 256.786C312.685 256.493 313.434 256.031 314.061 255.428C314.519 254.982 314.904 254.468 315.204 253.905C315.728 252.927 315.967 251.822 315.894 250.715Z"
      fill="#3FE198" />
    <path
      d="M386.096 162.914C386.096 187.5 363.355 183.781 335.303 183.781C307.251 183.781 284.51 187.5 284.51 162.914C284.51 138.329 295.618 94.7493 335.303 94.7493C376.355 94.7493 386.096 138.329 386.096 162.914Z"
      fill="#2F2E41" />
    <path
      d="M359.301 173.733C372.649 160.39 372.649 138.756 359.301 125.413C345.954 112.07 324.313 112.07 310.965 125.413C297.617 138.756 297.617 160.39 310.965 173.733C324.313 187.076 345.954 187.076 359.301 173.733Z"
      fill="#A0616A" />
    <path
      d="M383.246 198.104C382.589 197.47 381.89 196.88 381.156 196.337C376.509 192.827 370.669 191.282 364.894 192.034L301.91 200C296.141 200.716 290.877 203.65 287.235 208.18C283.593 212.71 281.859 218.48 282.401 224.266C282.58 226.277 282.782 228.396 283.004 230.602C283.292 233.367 283.615 236.269 283.989 239.272C284.606 244.322 285.361 249.652 286.259 255.075C287.043 259.745 287.934 264.479 288.954 269.155C289.249 270.505 289.555 271.851 289.874 273.192C289.873 273.196 289.874 273.2 289.875 273.204C289.876 273.207 289.878 273.211 289.881 273.214C289.917 273.379 289.953 273.544 289.996 273.702C289.994 273.715 289.997 273.727 290.003 273.738C290.449 275.606 290.916 277.452 291.405 279.276C291.591 279.952 291.771 280.62 291.958 281.281C292.461 283.076 292.993 284.836 293.539 286.568C297.642 299.447 303.067 310.416 310.231 316.249C310.325 316.336 310.418 316.407 310.519 316.486L310.806 316.709L311.223 316.58L312.991 316.055L314.5 315.596L334.16 309.684L339.054 308.211L354.777 303.477H354.784L369.163 299.153L370.916 298.621L383.268 294.907L383.663 290.296L384.195 284.175L384.511 280.498L387.012 251.491L388.471 234.567L390.052 216.192C390.345 212.86 389.886 209.504 388.708 206.374C387.531 203.243 385.664 200.417 383.246 198.104Z"
      fill="#2F2E41" />
    <path
      d="M418.464 338.461C418.299 337.979 418.141 337.498 417.976 337.024C410.589 315.474 399.695 299.175 383.663 290.296C383.656 290.296 383.656 290.289 383.649 290.289L383.376 290.138L369.407 294.972L367.682 295.569L365.886 296.194L365.864 296.201L352.786 300.726L352.764 300.733L342.503 304.282H342.496L333.003 307.565H332.996L330.79 308.334L314.198 314.073L312.272 314.741L310.547 315.337L310.281 315.431L310.231 316.25L309.046 337.024L308.967 338.461L307.486 364.386L258.328 434H291.958C303.226 434.003 314.478 433.145 325.616 431.436L357.169 397.444C357.433 397.17 357.768 396.974 358.136 396.876C358.503 396.778 358.891 396.783 359.256 396.89C359.622 396.996 359.951 397.2 360.209 397.48C360.467 397.76 360.643 398.105 360.719 398.478L365.354 421.465C388.188 413.393 409.548 401.644 428.589 386.683C426.376 368.832 423.142 352.562 418.464 338.461Z"
      fill="#2F2E41" />
    <path
      d="M295.643 146.221H309.161L315.125 129.527L316.318 146.221H322.779L326.258 136.483L326.954 146.221H374.963C374.963 141.471 374.028 136.768 372.209 132.38C370.391 127.991 367.726 124.004 364.366 120.645C361.006 117.287 357.018 114.623 352.628 112.805C348.238 110.987 343.534 110.052 338.782 110.052H331.824C322.228 110.052 313.025 113.862 306.24 120.645C299.455 127.428 295.643 136.628 295.643 146.221Z"
      fill="#2F2E41" />
    <path
      d="M212.492 327.246C210.285 328.173 207.902 328.605 205.509 328.511C203.117 328.418 200.775 327.801 198.647 326.705C196.519 325.608 194.658 324.059 193.193 322.165C191.729 320.272 190.698 318.081 190.173 315.746L132.352 309.2L151.734 285.997L203.671 295.771C207.653 295.149 211.725 296.008 215.115 298.187C218.506 300.366 220.979 303.712 222.066 307.591C223.154 311.471 222.779 315.615 221.015 319.237C219.25 322.86 216.218 325.709 212.492 327.246Z"
      fill="#A0616A" />
    <path
      d="M181.317 284.298L156.878 279.93L155.104 279.614C153.685 279.361 152.337 278.811 151.146 277.999C149.956 277.188 148.951 276.134 148.197 274.907C147.443 273.679 146.957 272.306 146.771 270.878C146.586 269.45 146.705 267.999 147.12 266.619L159.12 226.759L159.48 225.573C160.978 220.507 160.711 215.082 158.723 210.187C156.735 205.292 153.143 201.217 148.536 198.628C145.417 196.897 141.941 195.908 138.378 195.739C134.814 195.57 131.26 196.224 127.991 197.652C124.722 199.079 121.827 201.241 119.53 203.97C117.233 206.698 115.596 209.92 114.748 213.383L99.4421 275.829L98.8744 278.142C97.8054 282.499 97.6888 287.035 98.5326 291.442C99.3764 295.848 101.161 300.021 103.764 303.675C106.367 307.33 109.728 310.38 113.618 312.618C117.507 314.856 121.834 316.23 126.303 316.645C126.353 316.652 126.396 316.652 126.447 316.659L135.608 317.471L147.494 318.527L162.44 319.856L176.388 321.098C178.215 321.264 180.037 320.737 181.494 319.622C182.95 318.507 183.934 316.885 184.249 315.079C184.271 314.978 184.285 314.878 184.3 314.777L187.26 292.681L187.289 292.48C187.544 290.609 187.065 288.712 185.952 287.186C184.838 285.661 183.178 284.626 181.317 284.298Z"
      fill="#CCCCCC" />
    <path
      d="M143.665 116.875C133.909 136.05 126.22 155.827 104.7 155.827C94.3663 155.827 84.4555 151.723 77.1482 144.418C69.841 137.113 65.7358 127.206 65.7358 116.875C65.7358 95.3629 83.1823 78.1931 104.7 77.9238C126.57 77.6501 161.824 81.1855 143.665 116.875Z"
      fill="#69402E" />
    <path
      d="M168.139 367.719L167.255 358.897L166.593 358.933L50.4057 364.529L50.7074 373.458L51.218 388.752C69.1963 402.442 89.1612 413.307 110.422 420.969L111.177 415.122C111.242 414.646 111.471 414.206 111.824 413.879C112.176 413.552 112.631 413.356 113.112 413.326C113.592 413.296 114.068 413.432 114.459 413.712C114.85 413.992 115.132 414.399 115.258 414.863L117.55 423.405C136.071 429.375 155.303 432.856 174.742 433.756L168.139 367.719Z"
      fill="#2F2E41" />
    <path
      d="M130.786 146.578C144.134 133.235 144.134 111.601 130.786 98.2577C117.438 84.9145 95.7974 84.9145 82.4497 98.2577C69.102 111.601 69.102 133.235 82.4497 146.578C95.7974 159.921 117.438 159.921 130.786 146.578Z"
      fill="#FFE2E2" />
    <path
      d="M174.814 359.494L168.038 338.461L167.923 338.102L167.578 337.024L165.645 331.033C165.02 329.086 164.423 327.132 163.87 325.171C163.36 323.404 162.883 321.632 162.44 319.856C161.808 317.385 161.233 314.904 160.716 312.414C158.962 304.045 157.793 295.565 157.216 287.035C157.058 284.671 156.945 282.303 156.878 279.93C156.457 265.386 157.767 250.843 160.78 236.607C163.403 224.297 162.002 211.47 156.784 200.016C151.565 188.562 142.805 179.086 131.793 172.984C124.567 168.991 116.569 166.593 108.338 165.951C107.77 165.908 107.203 165.872 106.628 165.836C97.9331 165.287 89.2259 166.697 81.1491 169.962C73.0723 173.227 65.8321 178.263 59.9631 184.7C56.8196 188.123 54.0893 191.903 51.8285 195.963C45.5556 207.262 43.2007 220.318 45.1314 233.094L53.2081 287.308L51.3688 310.129L49.1987 337.024L49.0836 338.461L46.7696 367.137C46.66 368.474 46.9838 369.81 47.693 370.948C48.4022 372.087 49.4591 372.967 50.7075 373.458C51.4386 373.751 52.2195 373.9 53.0071 373.897C53.1222 373.897 53.2299 373.897 53.345 373.889L168.139 367.719L169.188 367.661C170.145 367.612 171.079 367.342 171.916 366.875C172.752 366.407 173.471 365.753 174.014 364.964C174.558 364.174 174.913 363.27 175.052 362.322C175.191 361.373 175.109 360.406 174.814 359.494Z"
      fill="#CCCCCC" />
    <path
      d="M142.887 103.108C135.077 108.49 125.806 111.354 116.321 111.316C119.704 113.661 123.556 115.245 127.611 115.959C115 118.664 101.965 118.737 89.3233 116.174C86.5133 115.724 83.8019 114.793 81.308 113.422C78.8807 111.949 76.8502 109.604 76.3606 106.808C75.5206 102.011 79.26 97.6522 83.146 94.7148C89.0958 90.2861 95.956 87.2349 103.23 85.7818C110.504 84.3287 118.011 84.5101 125.206 86.3129C129.905 87.527 134.611 89.5782 137.663 93.3501C140.715 97.122 141.619 102.937 138.711 106.821L142.887 103.108Z"
      fill="#69402E" />
    <path
      d="M144.635 320.138C142.448 321.112 140.075 321.596 137.681 321.554C135.287 321.512 132.932 320.946 130.781 319.896C128.63 318.846 126.735 317.338 125.231 315.476C123.726 313.615 122.648 311.447 122.072 309.124L64.1224 303.83L82.9978 280.214L135.134 288.861C139.101 288.153 143.191 288.924 146.628 291.029C150.065 293.134 152.61 296.426 153.781 300.281C154.952 304.136 154.668 308.287 152.982 311.947C151.296 315.606 148.326 318.521 144.635 320.138Z"
      fill="#FFE2E2" />
    <path
      d="M112.542 277.876L99.4421 275.829L86.2272 273.76C84.804 273.537 83.4439 273.017 82.2363 272.232C81.0288 271.447 80.001 270.415 79.2205 269.205C78.4401 267.994 77.9246 266.633 77.7079 265.209C77.4913 263.785 77.5784 262.332 77.9635 260.945L89.4321 219.64C90.8199 214.542 90.4354 209.125 88.3415 204.274C86.2475 199.423 82.5682 195.427 77.906 192.939C74.7565 191.259 71.2589 190.336 67.6904 190.243C64.1219 190.149 60.5807 190.888 57.3474 192.4C54.1043 193.889 51.2511 196.11 49.0128 198.889C46.7745 201.667 45.2121 204.927 44.4487 208.412L29.9837 273.501C29.0093 277.892 28.9952 282.441 29.9424 286.837C30.8896 291.234 32.7758 295.374 35.4718 298.974C38.1679 302.575 41.6102 305.55 45.5631 307.697C49.5161 309.845 53.8864 311.113 58.3751 311.415L108.41 314.77C110.24 314.895 112.049 314.328 113.481 313.183C114.913 312.038 115.862 310.397 116.142 308.585C116.164 308.484 116.171 308.384 116.185 308.283L118.664 286.13L118.686 285.928C118.899 284.053 118.379 282.168 117.234 280.667C116.089 279.166 114.408 278.166 112.542 277.876Z"
      fill="#CCCCCC" />
    <path
      d="M334.208 243.539L331.21 245.174L294.266 265.325L291.267 266.96C289.812 267.756 288.733 269.096 288.265 270.687C287.797 272.278 287.98 273.989 288.772 275.445L316.283 325.85C317.079 327.304 318.42 328.384 320.011 328.851C321.602 329.319 323.314 329.136 324.771 328.344L324.779 328.34L367.704 304.927L367.712 304.922C369.167 304.127 370.247 302.786 370.714 301.196C371.182 299.605 371 297.894 370.207 296.438L342.696 246.033C341.9 244.579 340.559 243.499 338.968 243.032C337.377 242.564 335.665 242.746 334.208 243.539Z"
      fill="#E6E6E6" />
    <path
      d="M335.071 245.119L331.519 247.056L295.682 266.604L292.13 268.541C291.094 269.107 290.325 270.062 289.992 271.194C289.659 272.327 289.789 273.546 290.353 274.583L317.864 324.987C318.431 326.023 319.386 326.792 320.519 327.125C321.652 327.458 322.871 327.328 323.908 326.764L323.916 326.759L366.841 303.346L366.849 303.342C367.885 302.775 368.654 301.821 368.987 300.688C369.321 299.555 369.191 298.337 368.626 297.3L341.115 246.895C340.548 245.86 339.594 245.091 338.46 244.758C337.327 244.425 336.108 244.555 335.071 245.119Z"
      fill="white" />
    <path
      d="M336.079 259.35C335.945 259.108 335.722 258.928 335.457 258.85C335.192 258.772 334.906 258.802 334.663 258.933L333.233 259.716L318.653 267.668C318.412 267.801 318.233 268.025 318.156 268.289C318.079 268.554 318.11 268.838 318.242 269.08C318.374 269.322 318.596 269.502 318.86 269.581C319.124 269.659 319.409 269.63 319.652 269.5L335.662 260.765C335.904 260.631 336.084 260.408 336.162 260.143C336.24 259.878 336.21 259.593 336.079 259.35Z"
      fill="#E6E6E6" />
    <path
      d="M341.533 260.377C341.468 260.257 341.38 260.151 341.273 260.066C341.167 259.98 341.045 259.917 340.914 259.878C340.783 259.84 340.646 259.829 340.51 259.844C340.375 259.859 340.244 259.901 340.124 259.968L320.342 270.757C320.222 270.823 320.116 270.911 320.03 271.018C319.945 271.124 319.881 271.246 319.843 271.377C319.804 271.508 319.792 271.646 319.807 271.782C319.822 271.917 319.863 272.049 319.929 272.169C319.994 272.288 320.083 272.394 320.189 272.48C320.296 272.565 320.418 272.629 320.549 272.667C320.68 272.706 320.817 272.718 320.953 272.703C321.089 272.689 321.221 272.647 321.341 272.582L322.261 272.079L328.016 268.94H328.024L341.116 261.792C341.237 261.727 341.344 261.639 341.431 261.533C341.518 261.426 341.583 261.304 341.621 261.172C341.66 261.04 341.672 260.902 341.657 260.766C341.642 260.629 341.6 260.497 341.533 260.377Z"
      fill="#E6E6E6" />
    <path
      d="M320.033 277.574L313.752 266.059C313.687 265.943 313.579 265.858 313.451 265.822C313.323 265.786 313.186 265.801 313.07 265.865L310.023 267.525L308.442 268.387L299.956 273.013L298.31 273.911C298.194 273.976 298.109 274.084 298.073 274.212C298.037 274.34 298.052 274.477 298.116 274.593L298.519 275.333L304.396 286.108C304.46 286.223 304.567 286.308 304.694 286.344C304.821 286.381 304.956 286.365 305.072 286.302L315.204 280.778L316.785 279.916L319.832 278.257C319.89 278.225 319.941 278.183 319.983 278.131C320.025 278.08 320.056 278.021 320.075 277.957C320.093 277.894 320.099 277.827 320.092 277.762C320.085 277.696 320.065 277.632 320.033 277.574Z"
      fill="#E6E6E6" />
    <path
      d="M344.019 273.961C343.887 273.719 343.665 273.54 343.401 273.461C343.137 273.383 342.853 273.413 342.611 273.544L320.895 285.39C320.703 285.495 320.549 285.657 320.455 285.854C320.361 286.052 320.331 286.274 320.37 286.489C320.386 286.6 320.422 286.707 320.479 286.805C320.533 286.904 320.604 286.994 320.687 287.07L320.694 287.078C320.855 287.222 321.056 287.314 321.271 287.339C321.486 287.365 321.703 287.324 321.894 287.221L343.61 275.376C343.73 275.31 343.836 275.221 343.921 275.114C344.007 275.007 344.07 274.885 344.108 274.753C344.146 274.622 344.158 274.484 344.143 274.348C344.128 274.212 344.086 274.08 344.019 273.961Z"
      fill="#E6E6E6" />
    <path
      d="M349.48 274.988C349.414 274.868 349.325 274.762 349.218 274.677C349.112 274.592 348.989 274.528 348.857 274.49C348.726 274.452 348.588 274.44 348.452 274.455C348.316 274.471 348.185 274.512 348.065 274.579L322.577 288.478C322.385 288.58 322.231 288.74 322.136 288.935C322.042 289.13 322.012 289.35 322.052 289.563V289.57C322.067 289.682 322.104 289.789 322.16 289.886C322.215 289.989 322.288 290.082 322.375 290.159C322.534 290.307 322.736 290.4 322.952 290.426C323.168 290.452 323.386 290.409 323.575 290.303L349.064 276.403C349.306 276.27 349.486 276.047 349.564 275.781C349.642 275.516 349.612 275.231 349.48 274.988Z"
      fill="#E6E6E6" />
    <path
      d="M313.622 296.92C316.062 296.92 318.041 294.942 318.041 292.502C318.041 290.062 316.062 288.083 313.622 288.083C311.181 288.083 309.202 290.062 309.202 292.502C309.202 294.942 311.181 296.92 313.622 296.92Z"
      fill="#E6E6E6" />
    <path
      d="M347.143 224.144L344.144 225.779L307.201 245.93L304.202 247.565C302.747 248.361 301.667 249.701 301.199 251.292C300.732 252.882 300.914 254.594 301.707 256.05L329.218 306.454C330.014 307.909 331.355 308.988 332.946 309.456C334.537 309.924 336.249 309.741 337.706 308.949L337.713 308.944L380.639 285.531L380.646 285.527C382.101 284.731 383.181 283.391 383.649 281.8C384.117 280.21 383.934 278.499 383.142 277.042L355.631 226.638C354.835 225.183 353.494 224.104 351.903 223.636C350.311 223.169 348.6 223.351 347.143 224.144Z"
      fill="#CCCCCC" />
    <path
      d="M348.005 225.724L344.454 227.661L308.616 247.208L305.065 249.145C304.028 249.712 303.259 250.667 302.926 251.799C302.593 252.932 302.723 254.151 303.288 255.188L330.799 305.592C331.366 306.628 332.32 307.397 333.453 307.73C334.587 308.063 335.806 307.933 336.843 307.368L336.851 307.364L379.776 283.951L379.784 283.947C380.82 283.38 381.589 282.426 381.922 281.293C382.255 280.16 382.125 278.942 381.561 277.905L354.05 227.5C353.483 226.464 352.528 225.696 351.395 225.363C350.262 225.03 349.043 225.16 348.005 225.724Z"
      fill="white" />
    <path
      d="M349.013 239.955C348.88 239.713 348.656 239.533 348.391 239.455C348.126 239.377 347.841 239.407 347.598 239.538L340.225 243.561L338.17 244.681L331.588 248.273C331.346 248.406 331.168 248.63 331.091 248.894C331.014 249.159 331.044 249.443 331.176 249.685C331.308 249.927 331.53 250.107 331.795 250.186C332.059 250.264 332.344 250.235 332.586 250.105L340.347 245.874L341.971 244.983L348.597 241.37C348.839 241.236 349.018 241.013 349.096 240.748C349.174 240.483 349.144 240.198 349.013 239.955Z"
      fill="#CCCCCC" />
    <path
      d="M354.467 240.982C354.402 240.862 354.314 240.756 354.208 240.671C354.102 240.585 353.98 240.521 353.849 240.483C353.718 240.445 353.58 240.433 353.445 240.449C353.309 240.464 353.178 240.506 353.059 240.572L342.776 246.183L341.195 247.045L333.276 251.362C333.156 251.427 333.051 251.516 332.965 251.622C332.879 251.729 332.816 251.851 332.777 251.982C332.739 252.113 332.727 252.25 332.741 252.386C332.756 252.522 332.797 252.654 332.863 252.773C332.929 252.893 333.017 252.999 333.124 253.084C333.23 253.17 333.352 253.234 333.483 253.272C333.615 253.311 333.752 253.323 333.888 253.308C334.024 253.293 334.155 253.252 334.275 253.186L342.194 248.869L343.775 248.007L354.05 242.397C354.172 242.332 354.279 242.244 354.366 242.138C354.452 242.031 354.517 241.908 354.556 241.777C354.595 241.645 354.607 241.507 354.592 241.37C354.576 241.234 354.534 241.102 354.467 240.982Z"
      fill="#CCCCCC" />
    <path
      d="M332.967 258.179L327.959 248.999L327.097 247.418L326.687 246.664C326.622 246.548 326.513 246.463 326.385 246.427C326.258 246.39 326.121 246.406 326.004 246.47L315.836 252.016L311.245 254.515C311.129 254.581 311.044 254.689 311.007 254.817C310.971 254.945 310.987 255.081 311.051 255.198L311.46 255.945L311.906 256.771L312.323 257.525V257.532L317.331 266.713C317.395 266.828 317.502 266.913 317.629 266.949C317.755 266.986 317.891 266.97 318.006 266.907L332.766 258.861C332.824 258.83 332.876 258.787 332.918 258.736C332.959 258.685 332.99 258.626 333.009 258.562C333.028 258.499 333.034 258.432 333.027 258.366C333.02 258.301 332.999 258.237 332.967 258.179Z"
      fill="#3FE198" />
    <path
      d="M356.954 254.566C356.822 254.324 356.6 254.145 356.335 254.066C356.071 253.988 355.787 254.018 355.545 254.149L349.056 257.691L347.475 258.553L341.209 261.965L333.829 265.995C333.709 266.06 333.603 266.149 333.517 266.255C333.431 266.362 333.367 266.484 333.328 266.616C333.289 266.747 333.277 266.885 333.291 267.021C333.306 267.157 333.347 267.289 333.413 267.41C333.478 267.53 333.567 267.636 333.674 267.722C333.78 267.808 333.903 267.872 334.034 267.911C334.166 267.95 334.303 267.962 334.44 267.948C334.576 267.933 334.708 267.892 334.828 267.826L348.474 260.384L350.055 259.522L356.544 255.981C356.664 255.915 356.77 255.826 356.856 255.719C356.941 255.612 357.005 255.49 357.043 255.358C357.081 255.227 357.093 255.089 357.077 254.953C357.062 254.817 357.02 254.685 356.954 254.566Z"
      fill="#CCCCCC" />
    <path
      d="M362.415 255.593C362.349 255.473 362.26 255.367 362.153 255.282C362.046 255.197 361.923 255.133 361.792 255.095C361.66 255.057 361.523 255.045 361.387 255.06C361.251 255.076 361.119 255.117 360.999 255.184L350.745 260.779L349.164 261.641L335.511 269.083C335.391 269.149 335.284 269.237 335.198 269.343C335.112 269.45 335.047 269.572 335.009 269.704C334.97 269.835 334.957 269.973 334.972 270.109C334.987 270.245 335.028 270.377 335.094 270.497C335.159 270.617 335.248 270.723 335.355 270.809C335.462 270.895 335.585 270.959 335.716 270.997C335.848 271.035 335.986 271.047 336.122 271.031C336.258 271.016 336.39 270.974 336.51 270.908L350.156 263.466L351.737 262.604L361.998 257.008C362.241 256.875 362.42 256.652 362.498 256.386C362.577 256.121 362.547 255.836 362.415 255.593Z"
      fill="#CCCCCC" />
    <path
      d="M326.556 277.525C328.997 277.525 330.976 275.547 330.976 273.107C330.976 270.667 328.997 268.688 326.556 268.688C324.115 268.688 322.137 270.667 322.137 273.107C322.137 275.547 324.115 277.525 326.556 277.525Z"
      fill="#CCCCCC" />
    <path
      d="M329.525 297.945C330.269 298.018 331.006 298.15 331.729 298.339L381.851 253.891L378.61 237.945L402.043 229.91L410.525 257.582C411.21 259.817 411.152 262.214 410.358 264.414C409.564 266.613 408.078 268.496 406.123 269.779L342.403 311.6C342.497 314.477 341.713 317.315 340.154 319.736C338.595 322.157 336.336 324.046 333.677 325.152C331.018 326.258 328.086 326.528 325.269 325.927C322.453 325.326 319.886 323.882 317.91 321.788C315.935 319.693 314.644 317.047 314.21 314.201C313.775 311.355 314.218 308.444 315.479 305.856C316.74 303.267 318.759 301.124 321.268 299.711C323.777 298.298 326.657 297.682 329.525 297.945Z"
      fill="#A0616A" />
    <path
      d="M416.352 233.892L402.153 206.782C400.691 202.658 397.684 199.264 393.767 197.315C389.849 195.367 385.327 195.016 381.156 196.337C380.997 196.38 380.847 196.43 380.689 196.488C376.461 197.965 372.993 201.059 371.045 205.089C369.097 209.12 368.828 213.759 370.298 217.988L375.996 247.95C376.159 248.807 376.506 249.62 377.012 250.331C377.518 251.043 378.171 251.637 378.928 252.073C379.755 252.557 380.687 252.833 381.644 252.878C382.432 252.928 383.221 252.818 383.965 252.554L387.012 251.491L406.572 244.681L412.967 242.454C413.792 242.166 414.545 241.704 415.175 241.098C415.805 240.493 416.298 239.759 416.619 238.947C416.94 238.135 417.082 237.263 417.036 236.39C416.99 235.518 416.757 234.666 416.352 233.892Z"
      fill="#3FE198" />
    <path
      d="M469.954 338.461H0.718584C0.528003 338.461 0.345228 338.385 0.210468 338.25C0.0757072 338.115 0 337.933 0 337.742C0 337.552 0.0757072 337.369 0.210468 337.234C0.345228 337.1 0.528003 337.024 0.718584 337.024H469.954C470.144 337.024 470.327 337.1 470.462 337.234C470.597 337.369 470.672 337.552 470.672 337.742C470.672 337.933 470.597 338.115 470.462 338.25C470.327 338.385 470.144 338.461 469.954 338.461Z"
      fill="#3F3D56" />
    <path
      d="M81.5564 325.171V325.531C81.5589 327.966 82.2684 330.348 83.5988 332.388C84.9292 334.429 86.8233 336.039 89.0514 337.024C90.6496 337.738 92.3811 338.105 94.1316 338.102H210.183V325.171H81.5564Z"
      fill="#3F3D56" />
    <path
      d="M291.21 239.954C289.369 236.154 286.533 232.922 283.004 230.602C281.404 229.543 279.678 228.689 277.866 228.059C275.397 227.197 272.8 226.757 270.185 226.759H158.804C152.613 226.766 146.677 229.228 142.298 233.604C137.92 237.981 135.457 243.915 135.45 250.105V314.755C135.448 315.663 135.501 316.57 135.608 317.471C135.766 318.818 136.04 320.15 136.427 321.45C136.811 322.731 137.307 323.976 137.908 325.171C139.842 329.057 142.823 332.326 146.515 334.61C150.206 336.894 154.463 338.104 158.804 338.101H270.185C273.252 338.103 276.289 337.499 279.123 336.327C281.957 335.154 284.532 333.434 286.701 331.266C288.87 329.098 290.59 326.524 291.763 323.691C292.937 320.858 293.54 317.822 293.539 314.755V250.105C293.544 246.588 292.748 243.117 291.21 239.954Z"
      fill="#3F3D56" />
    <path
      d="M220.602 288.177C223.777 288.177 226.351 285.604 226.351 282.43C226.351 279.256 223.777 276.683 220.602 276.683C217.427 276.683 214.854 279.256 214.854 282.43C214.854 285.604 217.427 288.177 220.602 288.177Z"
      fill="white" />
  </g>
  <defs>
    <clipPath id="clip0_24_186">
      <rect width="514" height="434" fill="white" />
    </clipPath>
  </defs>
</svg>