<svg width="678" height="531" viewBox="0 0 678 531" fill="none" xmlns="http://www.w3.org/2000/svg">
<path d="M12.0533 0.291997C8.944 0.281581 5.95439 1.51074 3.75639 3.70866C1.55853 5.91173 0.329326 8.89613 0.339726 12.0056V415.059C0.344934 418.158 1.58451 421.127 3.78239 423.309C5.98026 425.491 8.95426 426.715 12.0532 426.705H241.493L209.821 507.049H133.321C130.227 507.033 127.259 508.252 125.061 510.434C122.863 512.611 121.623 515.575 121.613 518.669C121.597 521.778 122.832 524.768 125.03 526.966C127.228 529.164 130.212 530.393 133.321 530.382H544.121C547.22 530.377 550.189 529.138 552.371 526.94C554.559 524.742 555.778 521.768 555.767 518.669C555.741 512.252 550.538 507.06 544.121 507.049H467.537L435.887 426.705H665.393C671.81 426.679 676.998 421.476 677.013 415.059V12.0059C677.039 5.5632 671.836 0.318395 665.393 0.292261L12.0533 0.291997ZM23.6992 23.6253H653.673V403.345H23.6992V23.6253ZM158.686 105.271C155.873 105.458 153.227 106.656 151.233 108.64C149.04 110.833 147.806 113.802 147.806 116.901C147.806 120 149.04 122.974 151.233 125.161L178.806 152.937L151.233 180.713V180.718C149.035 182.906 147.795 185.885 147.795 188.989C147.795 192.093 149.035 195.067 151.233 197.26C153.436 199.448 156.42 200.672 159.525 200.656C162.629 200.635 165.597 199.385 167.775 197.171L195.253 169.51L222.712 197.171H222.717C227.243 201.718 234.592 201.76 239.165 197.26C241.379 195.083 242.634 192.114 242.655 189.005C242.67 185.901 241.446 182.916 239.259 180.718L211.685 152.942L239.259 125.166V125.161C241.441 122.963 242.66 119.984 242.639 116.885C242.623 113.786 241.373 110.817 239.165 108.64C234.592 104.14 227.243 104.182 222.717 108.729L195.258 136.39L167.78 108.729H167.775C165.394 106.307 162.077 105.047 158.686 105.271ZM445.659 105.271C442.847 105.458 440.201 106.656 438.206 108.64C435.998 110.817 434.748 113.786 434.732 116.885C434.717 119.984 435.93 122.963 438.112 125.161L465.686 152.937L438.112 180.713V180.718C435.925 182.916 434.701 185.901 434.722 189.005C434.737 192.114 435.993 195.083 438.206 197.26C440.404 199.442 443.383 200.661 446.482 200.64C449.586 200.625 452.55 199.375 454.727 197.171L482.159 169.531L509.596 197.171C511.773 199.375 514.737 200.625 517.836 200.64C520.935 200.661 523.914 199.442 526.117 197.26C528.331 195.083 529.586 192.114 529.601 189.005C529.617 185.901 528.398 182.916 526.211 180.718L498.637 152.942L526.211 125.166V125.161C528.393 122.963 529.607 119.984 529.591 116.885C529.57 113.786 528.32 110.817 526.117 108.64C523.914 106.458 520.935 105.245 517.836 105.26C514.737 105.276 511.773 106.526 509.596 108.729L482.159 136.349L454.727 108.729C452.352 106.312 449.039 105.052 445.659 105.271ZM338.722 237.911C300.67 237.911 269.749 269.124 269.749 307.317V310.073C269.733 313.166 270.952 316.14 273.129 318.338C275.311 320.531 278.275 321.776 281.368 321.786C284.478 321.796 287.462 320.567 289.665 318.369C291.863 316.172 293.092 313.182 293.082 310.072V307.317C293.082 281.552 313.29 261.244 338.722 261.244C364.154 261.244 384.362 281.551 384.362 307.317V310.072C384.352 313.171 385.57 316.145 387.753 318.343C389.94 320.541 392.909 321.781 396.003 321.786C399.102 321.77 402.06 320.531 404.242 318.338C406.419 316.14 407.638 313.166 407.628 310.072V307.317C407.628 269.12 376.774 237.911 338.722 237.911ZM266.649 426.697H410.822L442.426 507.041H234.946L266.649 426.697Z" fill="#3FE198"/>
</svg>
